<svg id="Livello_1" data-name="Livello 1" xmlns="http://www.w3.org/2000/svg" width="313.89" height="313.28" viewBox="0 0 313.89 313.28"><defs><style>.cls-1{fill:#4ab5cc;}</style></defs><title>almaden simbolo transparente AGORA SIM</title><circle class="cls-1" cx="45.3" cy="54.58" r="30.58" transform="translate(-25.33 48.02) rotate(-45)"/><path class="cls-1" d="M238.65,71H127.84a53.26,53.26,0,0,0-53.27,53.27V234.78a53.26,53.26,0,0,0,53.27,53.27H238.32a53.26,53.26,0,0,0,53.27-53.27V124.29C291.92,95,267.92,71,238.65,71Zm-119,33.87A19.08,19.08,0,1,1,100.54,124,19.09,19.09,0,0,1,119.62,104.89Zm36.17,150.93H92.65l17.1-43.07a48,48,0,0,1,45.38-31.57h29.92Zm58.86,0L155.46,105.55h29.92a48.44,48.44,0,0,1,45.38,31.57l47.35,118.7Z"/></svg>