<?xml version="1.0" encoding="utf-8"?>
<!-- Generator: Adobe Illustrator 22.0.1, SVG Export Plug-In . SVG Version: 6.00 Build 0)  -->
<svg version="1.1" id="Livello_1" xmlns="http://www.w3.org/2000/svg" xmlns:xlink="http://www.w3.org/1999/xlink" x="0px" y="0px"
	 viewBox="0 0 173 152" style="enable-background:new 0 0 173 152;" xml:space="preserve">
<style type="text/css">
	.st0{fill:#50BFD7;}
	.st1{fill:#454545;}
	.st2{fill:#FFFFFF;}
</style>
<g>
	<path class="st0" d="M100.3,21.5H66.6c-9,0-16.2,7.3-16.2,16.2v33.6c0,9,7.3,16.2,16.2,16.2h33.6c9,0,16.2-7.3,16.2-16.2V37.7
		C116.5,28.8,109.2,21.5,100.3,21.5z M41.5,7.2c-5.1,0-9.3,4.2-9.3,9.3s4.2,9.3,9.3,9.3s9.3-4.2,9.3-9.3S46.6,7.2,41.5,7.2z"/>
</g>
<g>
	<path class="st0" d="M55.9,141h-0.4l-1.8,5.1h4L55.9,141z M58.4,148H53l-1.3,3.6h-1.1c-0.3,0-0.4-0.1-0.5-0.3
		c-0.1-0.2-0.1-0.4,0-0.6l3.9-10.9c0.1-0.3,0.3-0.5,0.7-0.7c0.3-0.2,0.7-0.2,1.1-0.2c0.4,0,0.7,0.1,1.1,0.2c0.3,0.2,0.6,0.4,0.7,0.7
		l4.2,11.7h-1.3c-0.5,0-0.8-0.2-1-0.7L58.4,148z"/>
	<path class="st0" d="M64.7,148.6c0,0.5,0.1,0.8,0.4,1.1c0.2,0.2,0.5,0.3,0.9,0.3v0.8c0,0.4-0.2,0.7-0.6,0.8
		c-0.3,0.1-0.6,0.1-0.9-0.1c-0.5-0.2-0.9-0.6-1.2-1c-0.3-0.5-0.5-1.1-0.5-1.9v-8.7c0-0.6,0.3-1,1-1h0.8V148.6z"/>
	<path class="st0" d="M78.6,145.8c0-0.7-0.2-1.2-0.5-1.5c-0.3-0.3-0.8-0.5-1.4-0.5c-0.6,0-1,0.2-1.4,0.5c-0.3,0.4-0.5,0.9-0.5,1.5
		v5.7H74c-0.7,0-1-0.3-1-1v-4.8c0-0.6-0.2-1.1-0.5-1.5c-0.3-0.3-0.8-0.5-1.4-0.5c-0.6,0-1.1,0.2-1.4,0.5c-0.3,0.3-0.5,0.8-0.5,1.5
		v5.7h-0.8c-0.7,0-1-0.3-1-1v-4.8c0-1.2,0.3-2.1,1-2.8c0.7-0.7,1.6-1,2.7-1c1,0,1.8,0.3,2.4,0.8c0.1,0.1,0.2,0.2,0.4,0.4
		c0.1-0.1,0.2-0.3,0.3-0.3c0.6-0.6,1.5-0.9,2.5-0.9c1.2,0,2.1,0.3,2.7,1c0.7,0.7,1,1.6,1,2.8v5.7h-0.8c-0.7,0-1-0.3-1-1V145.8z"/>
	<path class="st0" d="M86.7,142c1.2,0,2.2,0.4,3.1,1.1c0.9,0.8,1.4,1.7,1.4,2.8v5.7h-0.5c-0.5,0-0.8-0.2-1-0.8
		c-0.4,0.4-0.8,0.6-1.3,0.8c-0.5,0.2-1,0.2-1.5,0.2c-1.2,0-2.2-0.4-3.1-1.1c-0.9-0.8-1.4-1.7-1.4-2.8v-2.2c0-1.1,0.5-2,1.4-2.8
		C84.5,142.4,85.5,142,86.7,142z M88.6,144.5c-0.5-0.4-1.1-0.6-1.9-0.6c-0.7,0-1.4,0.2-1.9,0.6c-0.5,0.4-0.7,0.8-0.7,1.4v2.2
		c0,0.5,0.2,1,0.7,1.4c0.5,0.4,1.2,0.6,1.9,0.6c0.7,0,1.4-0.2,1.9-0.6c0.5-0.4,0.7-0.8,0.7-1.4v-2.2C89.3,145.3,89,144.9,88.6,144.5
		z"/>
	<path class="st0" d="M101.8,148c0,1.1-0.5,2-1.4,2.8c-0.9,0.7-1.9,1.1-3.1,1.1c-1.2,0-2.2-0.4-3.1-1.1c-0.9-0.8-1.4-1.7-1.4-2.8
		v-2.2c0-1.1,0.5-2,1.4-2.8c0.9-0.7,1.9-1.1,3.1-1.1c0.9,0,1.8,0.2,2.6,0.7v-2.8c0-0.6,0.3-1,1-1h0.8V148z M100,148v-2.2
		c0-0.5-0.2-1-0.7-1.4c-0.5-0.4-1.1-0.6-1.9-0.6s-1.4,0.2-1.9,0.6c-0.5,0.4-0.7,0.8-0.7,1.4v2.2c0,0.5,0.2,1,0.7,1.4
		c0.5,0.4,1.2,0.6,1.9,0.6s1.4-0.2,1.9-0.6C99.7,149,100,148.5,100,148z"/>
	<path class="st0" d="M108,142c0.4,0,0.8,0,1.3,0.1c0.4,0.1,0.8,0.2,1.2,0.4c0.5,0.3,0.9,0.6,1.2,1c0.3,0.5,0.5,1,0.5,1.6
		c0,0.5-0.1,0.9-0.3,1.4c-0.2,0.4-0.5,0.6-0.8,0.9c-0.3,0.3-0.7,0.4-1.1,0.5c-0.4,0.1-0.8,0.2-1.2,0.2h-2.2c-0.1,0-0.3,0-0.3,0
		c-0.1,0-0.2-0.1-0.3-0.1v0.8c0,0.4,0.2,0.8,0.7,1c0.4,0.2,0.8,0.3,1.3,0.4c0.4,0,0.9,0,1.3-0.1c0.3-0.1,0.6-0.2,0.9-0.4
		c0.1,0,0.1-0.1,0.2-0.2c0.3-0.3,0.7-0.4,1.1-0.2l0.9,0.4c-0.2,0.4-0.4,0.7-0.7,1c-0.4,0.4-0.9,0.7-1.6,0.9
		c-0.6,0.2-1.2,0.3-1.8,0.3c-0.6,0-1-0.1-1.4-0.2c-0.5-0.1-1-0.3-1.3-0.6c-0.5-0.3-0.8-0.7-1-1.2c-0.2-0.5-0.3-1-0.3-1.6v-3
		c0-0.5,0.1-0.9,0.3-1.4c0.3-0.7,0.8-1.2,1.6-1.5C106.4,142.1,107.2,142,108,142z M108.9,146.1c0.4,0,0.6-0.1,0.9-0.2
		c0.3-0.2,0.5-0.4,0.5-0.8c0-0.3-0.1-0.6-0.3-0.8c-0.2-0.2-0.4-0.3-0.6-0.3c-0.2-0.1-0.5-0.1-0.7-0.1c-0.5,0-1,0-1.4,0.1
		c-0.4,0.1-0.7,0.2-0.9,0.4c-0.3,0.2-0.4,0.5-0.4,0.9v0.9H108.9z"/>
	<path class="st0" d="M113.8,145.7c0-1,0.4-1.9,1.3-2.7c0.8-0.7,1.8-1,2.9-1s2.1,0.3,2.9,1c0.9,0.7,1.3,1.6,1.3,2.7c0,1,0,2,0,2.9
		c0,1,0,2,0,2.9c-0.1,0-0.3,0-0.4,0s-0.3,0-0.4,0c-0.7,0-1-0.3-1-1v-4.9c0-0.5-0.2-0.9-0.6-1.2c-0.5-0.4-1.1-0.6-1.8-0.6
		c-0.7,0-1.3,0.2-1.8,0.6c-0.4,0.4-0.6,0.8-0.6,1.2v5.9c-0.1,0-0.3,0-0.4,0c-0.1,0-0.3,0-0.4,0c-0.7,0-1-0.3-1-1V145.7z"/>
</g>
<g>
	<path class="st1" d="M3.1,117.8v3.8c0,1.2,0.5,2.2,1.5,3.1c1,0.9,2.3,1.4,3.8,1.4c1.5,0,2.8-0.5,3.8-1.4c0.2-0.2,0.4-0.4,0.5-0.5
		c0.6-0.7,1.3-0.9,2.2-0.5l1.3,0.7c-0.4,1-1.1,1.9-2,2.7c-1.6,1.4-3.6,2.2-5.9,2.2c-2.3,0-4.3-0.7-5.9-2.2c-1.7-1.5-2.5-3.3-2.5-5.5
		v-3.8v-0.5v-3c0-2.1,0.8-4,2.5-5.5c1.6-1.5,3.6-2.2,5.9-2.2c2.3,0,4.2,0.7,5.9,2.2c0.9,0.8,1.5,1.6,2,2.6l-1.3,0.7
		c-0.9,0.4-1.6,0.3-2.2-0.4c-0.1-0.2-0.3-0.3-0.5-0.5c-1-0.9-2.3-1.4-3.8-1.4c-1.5,0-2.8,0.5-3.8,1.4c-1,0.9-1.5,1.9-1.5,3.1v3
		V117.8z"/>
	<path class="st1" d="M26.5,112.4c2,0,3.7,0.6,5.2,1.8c1.5,1.3,2.3,2.9,2.3,4.7v3.7c0,1.9-0.8,3.4-2.3,4.7c-1.5,1.2-3.2,1.8-5.2,1.8
		c-2,0-3.8-0.6-5.2-1.8c-1.5-1.3-2.3-2.8-2.3-4.7v-3.7c0-1.9,0.8-3.4,2.3-4.7C22.7,113,24.5,112.4,26.5,112.4z M29.7,116.6
		c-0.9-0.7-2-1.1-3.2-1.1c-1.3,0-2.3,0.4-3.2,1.1c-0.8,0.7-1.2,1.4-1.2,2.3v3.7c0,0.9,0.4,1.7,1.2,2.3c0.9,0.7,2,1.1,3.2,1.1
		c1.3,0,2.3-0.4,3.2-1.1c0.8-0.6,1.2-1.4,1.2-2.3v-3.7C30.9,118.1,30.5,117.3,29.7,116.6z"/>
	<path class="st1" d="M40.5,123.6c0,0.8,0.3,1.4,0.8,1.9c0.4,0.4,0.9,0.5,1.5,0.5v1.4c0,0.7-0.3,1.1-0.9,1.3
		c-0.5,0.2-1.1,0.1-1.6-0.2c-0.9-0.4-1.5-1-2-1.8c-0.6-0.9-0.8-1.9-0.8-3.2v-14.7c0-1.1,0.6-1.7,1.7-1.7h1.4V123.6z"/>
	<path class="st1" d="M48.6,123.6c0,0.8,0.3,1.4,0.8,1.9c0.4,0.4,0.9,0.5,1.5,0.5v1.4c0,0.7-0.3,1.1-0.9,1.3
		c-0.5,0.2-1.1,0.1-1.6-0.2c-0.9-0.4-1.5-1-2-1.8c-0.6-0.9-0.8-1.9-0.8-3.2v-14.7c0-1.1,0.6-1.7,1.7-1.7h1.4V123.6z"/>
	<path class="st1" d="M59.8,112.4c0.7,0,1.4,0.1,2.1,0.2c0.7,0.1,1.4,0.3,2.1,0.6c0.8,0.4,1.5,1,2,1.7c0.6,0.8,0.9,1.7,0.9,2.7
		c0,0.8-0.2,1.6-0.5,2.3c-0.3,0.6-0.8,1.1-1.3,1.5c-0.6,0.4-1.2,0.7-1.9,0.9c-0.6,0.2-1.3,0.3-2.1,0.3h-3.8c-0.3,0-0.4,0-0.6,0
		c-0.2-0.1-0.4-0.1-0.5-0.2v1.3c0,0.7,0.4,1.3,1.1,1.8c0.6,0.4,1.3,0.6,2.1,0.6c0.7,0.1,1.5,0,2.3-0.2c0.6-0.1,1.1-0.3,1.5-0.7
		c0.1-0.1,0.3-0.2,0.4-0.4c0.5-0.6,1.1-0.6,1.9-0.3l1.5,0.7c-0.3,0.7-0.7,1.2-1.2,1.7c-0.7,0.7-1.6,1.3-2.7,1.6
		c-1,0.3-2,0.5-3.1,0.5c-0.9,0-1.8-0.1-2.4-0.3c-0.9-0.2-1.6-0.5-2.3-1c-0.8-0.5-1.4-1.2-1.8-2.1c-0.4-0.8-0.6-1.7-0.6-2.7V118
		c0-0.8,0.2-1.6,0.5-2.3c0.5-1.1,1.4-2,2.6-2.5C57.2,112.7,58.4,112.4,59.8,112.4z M61.3,119.4c0.6,0,1.1-0.1,1.5-0.4
		c0.5-0.3,0.8-0.7,0.9-1.3c0.1-0.6-0.1-1.1-0.6-1.4c-0.3-0.3-0.7-0.5-1.1-0.6c-0.4-0.1-0.8-0.2-1.2-0.2c-0.9-0.1-1.7,0-2.4,0.2
		c-0.6,0.2-1.2,0.4-1.6,0.8c-0.5,0.4-0.7,0.9-0.7,1.5v1.5H61.3z"/>
	<path class="st1" d="M69.2,122.9v-4.2c0-1.8,0.7-3.3,2.2-4.5c1.4-1.2,3.1-1.7,5-1.7c1.9,0,3.6,0.6,5,1.7c0.9,0.7,1.5,1.6,1.9,2.5
		l-1.4,0.7c-0.8,0.4-1.5,0.3-2-0.4c-0.2-0.2-0.3-0.3-0.4-0.4c-0.8-0.7-1.8-1-3-1c-1.2,0-2.2,0.3-3,1c-0.7,0.6-1.1,1.3-1.1,2.1v4.2
		c0,0.8,0.4,1.5,1.1,2.1c0.8,0.7,1.8,1,3,1c1.2,0,2.2-0.3,3-1c0.1-0.1,0.2-0.2,0.4-0.4c0.6-0.6,1.2-0.8,2-0.4l1.4,0.7
		c-0.4,1-1,1.8-1.9,2.5c-1.4,1.2-3,1.7-5,1.7c-2,0-3.6-0.6-5-1.7C70,126.2,69.2,124.7,69.2,122.9z"/>
	<path class="st1" d="M89.4,112.9h3.7v1.4c0,1.2-0.6,1.7-1.7,1.7h-2.1v7.6c0,0.8,0.3,1.4,0.8,1.9c0.4,0.4,0.9,0.5,1.5,0.5v1.4
		c0,0.7-0.3,1.1-0.9,1.3c-0.5,0.2-1.1,0.1-1.6-0.2c-0.9-0.4-1.5-1-2-1.8c-0.6-0.9-0.8-1.9-0.8-3.2v-14.7c0-1.1,0.6-1.7,1.7-1.7h1.4
		V112.9z"/>
	<path class="st1" d="M95.8,127v-12.5c0-1.1,0.6-1.7,1.7-1.7h1.4v15.8h-1.4C96.3,128.7,95.8,128.1,95.8,127z M95.8,108.9
		c0-1.1,0.6-1.7,1.7-1.7h1.4v1.5c0,1.1-0.6,1.7-1.7,1.7h-1.4V108.9z"/>
	<path class="st1" d="M108.8,126l4.2-11.9c0.3-0.8,0.8-1.2,1.6-1.2h2.1l-5.1,14.4c-0.2,0.5-0.6,0.9-1.1,1.2
		c-0.5,0.3-1.1,0.4-1.7,0.4c-0.6,0-1.2-0.1-1.8-0.4c-0.6-0.3-0.9-0.7-1.1-1.2l-4.6-13c-0.1-0.4-0.1-0.7,0-1c0.1-0.3,0.4-0.4,0.9-0.4
		h1.9L108.8,126L108.8,126z"/>
	<path class="st1" d="M125.4,112.4c0.7,0,1.4,0.1,2.1,0.2c0.7,0.1,1.4,0.3,2.1,0.6c0.8,0.4,1.5,1,2,1.7c0.6,0.8,0.9,1.7,0.9,2.7
		c0,0.8-0.2,1.6-0.5,2.3c-0.3,0.6-0.8,1.1-1.3,1.5c-0.6,0.4-1.2,0.7-1.9,0.9c-0.6,0.2-1.3,0.3-2.1,0.3h-3.8c-0.3,0-0.4,0-0.6,0
		c-0.2-0.1-0.4-0.1-0.5-0.2v1.3c0,0.7,0.4,1.3,1.1,1.8c0.6,0.4,1.3,0.6,2.1,0.6c0.7,0.1,1.5,0,2.3-0.2c0.6-0.1,1.1-0.3,1.5-0.7
		c0.1-0.1,0.3-0.2,0.4-0.4c0.5-0.6,1.1-0.6,1.9-0.3l1.5,0.7c-0.3,0.7-0.7,1.2-1.2,1.7c-0.7,0.7-1.6,1.3-2.7,1.6
		c-1,0.3-2,0.5-3.1,0.5c-0.9,0-1.8-0.1-2.4-0.3c-0.9-0.2-1.6-0.5-2.3-1c-0.8-0.5-1.4-1.2-1.8-2.1c-0.4-0.8-0.6-1.7-0.6-2.7V118
		c0-0.8,0.2-1.6,0.5-2.3c0.5-1.1,1.4-2,2.6-2.5C122.8,112.7,124,112.4,125.4,112.4z M126.9,119.4c0.6,0,1.1-0.1,1.5-0.4
		c0.5-0.3,0.8-0.7,0.9-1.3c0.1-0.6-0.1-1.1-0.6-1.4c-0.3-0.3-0.7-0.5-1.1-0.6c-0.4-0.1-0.8-0.2-1.2-0.2c-0.9-0.1-1.7,0-2.4,0.2
		c-0.6,0.2-1.2,0.4-1.6,0.8c-0.5,0.4-0.7,0.9-0.7,1.5v1.5H126.9z"/>
	<path class="st1" d="M148,128.7h-1.4c-1.2,0-1.7-0.6-1.7-1.7v-18.2c0-1.1,0.6-1.7,1.7-1.7h1.4V128.7z"/>
	<path class="st1" d="M170.7,121.3c0,1.2-0.3,2.4-1,3.5l2.6,3.8h-2c-1.2,0-2.1-0.4-2.7-1.3l-0.1-0.1c-1.7,1.3-3.7,1.9-6,1.9
		c-2.4,0-4.6-0.7-6.3-2.2c-1.9-1.5-2.8-3.4-2.8-5.6v-6.8c0-2.2,0.9-4.1,2.8-5.6c1.8-1.5,3.9-2.2,6.3-2.2c2.4,0,4.5,0.7,6.3,2.2
		c1.9,1.5,2.8,3.4,2.8,5.6V121.3z M155.6,121.3c0,1.3,0.5,2.3,1.6,3.2c1.2,1,2.6,1.5,4.3,1.5c1.7,0,3.1-0.5,4.3-1.5
		c1.1-0.9,1.6-2,1.6-3.2v-6.8c0-1.2-0.5-2.3-1.6-3.2c-1.2-1-2.6-1.5-4.3-1.5c-1.7,0-3.1,0.5-4.3,1.5c-1.1,0.9-1.6,2-1.6,3.2V121.3z"
		/>
</g>
<image style="overflow:visible;" width="173" height="152" xlink:href="Frame 1782.png"  transform="matrix(1 0 0 1 24 183)">
</image>
<path class="st2" d="M97.9,41.6c-2.1-5.7-7.6-9.6-13.8-9.6H75l18,45.7h19.3L97.9,41.6z M61.1,64.6l-5.2,13.1h19.2L84,55h-9.1
	C68.7,55,63.2,58.8,61.1,64.6z M64.1,43.4c3.2,0,5.8-2.6,5.8-5.8s-2.6-5.8-5.8-5.8s-5.8,2.6-5.8,5.8S60.9,43.4,64.1,43.4z"/>
</svg>
